<svg width="50" height="26" viewBox="0 0 48 50" fill="none" xmlns="http://www.w3.org/2000/svg">
<g clip-path="url(#clip0)">
<path d="M35.3636 13.6364C35.3636 20.6541 29.9123 26.2727 23.2727 26.2727C16.6332 26.2727 11.1818 20.6541 11.1818 13.6364C11.1818 6.61863 16.6332 1 23.2727 1C29.9123 1 35.3636 6.61863 35.3636 13.6364Z" stroke="#B2B2B2" stroke-width="2"/>
<path d="M1.01956 49.7576C1.52242 36.931 11.6547 26.7576 24 26.7576C36.3453 26.7576 46.4776 36.931 46.9804 49.7576H46.9351H46.8056H46.6769H46.549H46.4218H46.2955H46.1699H46.0452H45.9212H45.798H45.6755H45.5538H45.4329H45.3128H45.1934H45.0748H44.9569H44.8398H44.7234H44.6078H44.4929H44.3788H44.2654H44.1528H44.0409H43.9297H43.8192H43.7095H43.6005H43.4922H43.3846H43.2778H43.1716H43.0662H42.9614H42.8574H42.7541H42.6515H42.5495H42.4483H42.3477H42.2479H42.1487H42.0502H41.9524H41.8553H41.7588H41.663H41.5679H41.4734H41.3796H41.2865H41.194H41.1022H41.011H40.9205H40.8306H40.7413H40.6527H40.5648H40.4775H40.3908H40.3047H40.2193H40.1344H40.0503H39.9667H39.8837H39.8014H39.7196H39.6385H39.558H39.4781H39.3988H39.32H39.2419H39.1644H39.0874H39.011H38.9352H38.86H38.7854H38.7114H38.6379H38.565H38.4926H38.4208H38.3496H38.279H38.2088H38.1393H38.0703H38.0018H37.9339H37.8665H37.7997H37.7334H37.6676H37.6024H37.5377H37.4735H37.4098H37.3467H37.2841H37.2219H37.1603H37.0993H37.0387H36.9786H36.919H36.8599H36.8013H36.7432H36.6856H36.6285H36.5718H36.5157H36.46H36.4048H36.35H36.2958H36.242H36.1886H36.1358H36.0834H36.0314H35.9799H35.9288H35.8782H35.8281H35.7783H35.7291H35.6802H35.6318H35.5838H35.5363H35.4892H35.4425H35.3962H35.3503H35.3049H35.2598H35.2152H35.171H35.1272H35.0837H35.0407H34.9981H34.9559H34.914H34.8726H34.8315H34.7908H34.7505H34.7106H34.671H34.6318H34.593H34.5546H34.5165H34.4787H34.4414H34.4043H34.3677H34.3314H34.2954H34.2597H34.2244H34.1895H34.1549H34.1206H34.0866H34.053H34.0197H33.9867H33.954H33.9217H33.8896H33.8579H33.8265H33.7954H33.7646H33.734H33.7038H33.6739H33.6443H33.6149H33.5859H33.5571H33.5286H33.5004H33.4724H33.4447H33.4173H33.3902H33.3633H33.3367H33.3103H33.2842H33.2584H33.2328H33.2074H33.1823H33.1574H33.1328H33.1084H33.0842H33.0603H33.0366H33.0131H32.9898H32.9668H32.944H32.9214H32.899H32.8768H32.8548H32.833H32.8114H32.79H32.7688H32.7478H32.727H32.7064H32.686H32.6657H32.6456H32.6257H32.606H32.5864H32.567H32.5478H32.5287H32.5098H32.4911H32.4725H32.454H32.4357H32.4175H32.3995H32.3816H32.3639H32.3463H32.3288H32.3115H32.2942H32.2771H32.2602H32.2433H32.2265H32.2099H32.1934H32.177H32.1606H32.1444H32.1283H32.1123H32.0963H32.0805H32.0648H32.0491H32.0335H32.018H32.0026H31.9872H31.9719H31.9567H31.9415H31.9264H31.9114H31.8964H31.8815H31.8666H31.8518H31.837H31.8223H31.8076H31.7929H31.7783H31.7637H31.7492H31.7346H31.7201H31.7056H31.6912H31.6767H31.6623H31.6479H31.6334H31.619H31.6046H31.5902H31.5757H31.5613H31.5469H31.5324H31.518H31.5035H31.489H31.4744H31.4599H31.4453H31.4307H31.4161H31.4014H31.3867H31.3719H31.3571H31.3422H31.3273H31.3124H31.2973H31.2823H31.2671H31.2519H31.2367H31.2213H31.2059H31.1904H31.1749H31.1592H31.1435H31.1277H31.1118H31.0958H31.0797H31.0635H31.0472H31.0308H31.0143H30.9977H30.981H30.9642H30.9472H30.9301H30.913H30.8956H30.8782H30.8606H30.8429H30.8251H30.8071H30.789H30.7707H30.7523H30.7338H30.715H30.6962H30.6772H30.658H30.6386H30.6191H30.5994H30.5796H30.5595H30.5393H30.5189H30.4984H30.4776H30.4567H30.4355H30.4142H30.3927H30.371H30.349H30.3269H30.3046H30.282H30.2592H30.2363H30.2131H30.1897H30.166H30.1421H30.118H30.0937H30.0692H30.0444H30.0193H29.994H29.9685H29.9427H29.9167H29.8904H29.8638H29.837H29.81H29.7826H29.755H29.7272H29.699H29.6706H29.6419H29.6129H29.5837H29.5541H29.5243H29.4941H29.4637H29.433H29.402H29.3706H29.339H29.307H29.2748H29.2422H29.2093H29.1761H29.1425H29.1087H29.0745H29.04H29.0051H28.9699H28.9344H28.8985H28.8623H28.8257H28.7888H28.7515H28.7139H28.6759H28.6376H28.5988H28.5598H28.5203H28.4805H28.4403H28.3997H28.3588H28.3174H28.2757H28.2336H28.1911H28.1482H28.1049H28.0612H28.017H27.9725H27.9276H27.8823H27.8365H27.7904H27.7438H27.6968H27.6494H27.6015H27.5532H27.5045H27.4554H27.4058H27.3557H27.3053H27.2543H27.203H27.1511H27.0989H27.0461H26.9929H26.9392H26.8851H26.8305H26.7754H26.7199H26.6639H26.6074H26.5504H26.4929H26.435H26.3765H26.3176H26.2581H26.1982H26.1377H26.0768H26.0153H25.9534H25.8909H25.8279H25.7644H25.7003H25.6358H25.5707H25.5051H25.4389H25.3723H25.305H25.2373H25.169H25.1001H25.0307H24.9608H24.8903H24.8192H24.7476H24.6754H24.6027H24.5294H24.4555H24.381H24.306H24.2304H24.1542H24.0774H24H23.9226H23.8456H23.7692H23.6932H23.6178H23.5428H23.4682H23.3942H23.3206H23.2475H23.1749H23.1027H23.031H22.9597H22.889H22.8186H22.7488H22.6793H22.6104H22.5419H22.4738H22.4062H22.339H22.2722H22.2059H22.1401H22.0746H22.0096H21.945H21.8809H21.8172H21.7539H21.691H21.6285H21.5665H21.5049H21.4437H21.3829H21.3225H21.2625H21.2029H21.1437H21.0849H21.0265H20.9685H20.9109H20.8537H20.7969H20.7404H20.6844H20.6287H20.5734H20.5185H20.464H20.4098H20.356H20.3026H20.2495H20.1968H20.1445H20.0925H20.0409H19.9896H19.9387H19.8882H19.838H19.7881H19.7386H19.6894H19.6406H19.5921H19.544H19.4961H19.4486H19.4015H19.3547H19.3082H19.262H19.2161H19.1706H19.1253H19.0804H19.0358H18.9916H18.9476H18.9039H18.8605H18.8175H18.7747H18.7322H18.69H18.6482H18.6066H18.5653H18.5242H18.4835H18.4431H18.4029H18.363H18.3234H18.284H18.245H18.2062H18.1676H18.1294H18.0913H18.0536H18.0161H17.9789H17.9419H17.9052H17.8687H17.8325H17.7965H17.7607H17.7252H17.69H17.6549H17.6201H17.5856H17.5513H17.5172H17.4833H17.4496H17.4162H17.383H17.35H17.3172H17.2846H17.2523H17.2201H17.1882H17.1565H17.1249H17.0936H17.0624H17.0315H17.0008H16.9702H16.9398H16.9096H16.8796H16.8498H16.8202H16.7907H16.7615H16.7323H16.7034H16.6746H16.646H16.6176H16.5893H16.5612H16.5333H16.5055H16.4778H16.4503H16.423H16.3958H16.3688H16.3419H16.3151H16.2885H16.262H16.2356H16.2094H16.1833H16.1574H16.1315H16.1058H16.0802H16.0548H16.0294H16.0042H15.9791H15.9541H15.9291H15.9044H15.8797H15.8551H15.8306H15.8062H15.7819H15.7577H15.7336H15.7095H15.6856H15.6618H15.638H15.6143H15.5907H15.5672H15.5437H15.5203H15.497H15.4738H15.4506H15.4274H15.4044H15.3814H15.3584H15.3356H15.3127H15.2899H15.2672H15.2445H15.2218H15.1992H15.1767H15.1541H15.1316H15.1092H15.0867H15.0643H15.042H15.0196H14.9973H14.975H14.9527H14.9304H14.9081H14.8859H14.8636H14.8414H14.8191H14.7969H14.7747H14.7524H14.7302H14.708H14.6857H14.6634H14.6412H14.6189H14.5966H14.5742H14.5519H14.5295H14.5071H14.4847H14.4622H14.4398H14.4172H14.3947H14.3721H14.3494H14.3268H14.304H14.2813H14.2584H14.2356H14.2126H14.1897H14.1666H14.1435H14.1203H14.0971H14.0738H14.0505H14.027H14.0035H13.9799H13.9563H13.9325H13.9087H13.8848H13.8608H13.8367H13.8125H13.7882H13.7639H13.7394H13.7149H13.6902H13.6654H13.6406H13.6156H13.5905H13.5653H13.54H13.5145H13.489H13.4633H13.4375H13.4116H13.3856H13.3594H13.3331H13.3066H13.28H13.2533H13.2265H13.1994H13.1723H13.145H13.1176H13.09H13.0622H13.0343H13.0062H12.978H12.9496H12.9211H12.8924H12.8635H12.8344H12.8052H12.7758H12.7462H12.7165H12.6865H12.6564H12.6261H12.5956H12.5649H12.534H12.5029H12.4716H12.4402H12.4085H12.3766H12.3445H12.3122H12.2797H12.247H12.2141H12.1809H12.1476H12.114H12.0802H12.0461H12.0119H11.9774H11.9427H11.9077H11.8725H11.8371H11.8014H11.7655H11.7293H11.6929H11.6563H11.6194H11.5822H11.5448H11.5071H11.4692H11.431H11.3926H11.3538H11.3148H11.2756H11.236H11.1962H11.1561H11.1158H11.0751H11.0342H10.993H10.9515H10.9097H10.8676H10.8252H10.7825H10.7396H10.6963H10.6527H10.6088H10.5646H10.5201H10.4753H10.4302H10.3847H10.3389H10.2929H10.2465H10.1997H10.1527H10.1053H10.0575H10.0095H9.96111H9.91238H9.86331H9.8139H9.76415H9.71405H9.6636H9.6128H9.56164H9.51014H9.45827H9.40605H9.35346H9.30051H9.24719H9.19351H9.13945H9.08502H9.03022H8.97504H8.91948H8.86354H8.80722H8.75051H8.69342H8.63593H8.57805H8.51978H8.46111H8.40204H8.34258H8.28271H8.22243H8.16175H8.10065H8.03915H7.97723H7.9149H7.85215H7.78898H7.72538H7.66136H7.59692H7.53204H7.46674H7.401H7.33482H7.26821H7.20116H7.13367H7.06573H6.99735H6.92851H6.85923H6.7895H6.71931H6.64866H6.57755H6.50599H6.43395H6.36146H6.28849H6.21506H6.14115H6.06677H5.99191H5.91657H5.84075H5.76445H5.68767H5.61039H5.53263H5.45437H5.37562H5.29638H5.21664H5.13639H5.05565H4.97439H4.89264H4.81037H4.72759H4.6443H4.56049H4.47617H4.39132H4.30595H4.22006H4.13364H4.0467H3.95922H3.87121H3.78266H3.69358H3.60396H3.51379H3.42309H3.33183H3.24003H3.14768H3.05477H2.96132H2.8673H2.77273H2.67759H2.58189H2.48563H2.38879H2.29139H2.19342H2.09487H1.99574H1.89604H1.79576H1.69489H1.59344H1.4914H1.38877H1.28555H1.18174H1.07733H1.01956Z" stroke="#B2B2B2" stroke-width="2"/>
</g>
<defs>
<clipPath id="clip0">
<rect width="48" height="50" fill="white"/>
</clipPath>
</defs>
</svg>
