<svg width="50" height="22" viewBox="0 0 50 50" fill="none" xmlns="http://www.w3.org/2000/svg">
<path transform="translate(-15, 0)" d="M41.6072 48.0769H8.39288C5.00003 48.0769 2.14288 45 2.14288 41.3461V17.8846C2.14288 14.2307 5.00003 11.1538 8.39288 11.1538H41.6072C45 11.1538 47.8572 14.2307 47.8572 17.8846V41.3461C47.8572 45 45 48.0769 41.6072 48.0769Z" stroke="#04b4e0" stroke-width="3" stroke-miterlimit="10"/>
<path transform="translate(-15, 0)" d="M36.4286 11.1538H13.5714V5.76922C13.5714 3.65383 15.1786 1.92307 17.1429 1.92307H32.8571C34.8214 1.92307 36.4286 3.65383 36.4286 5.76922V11.1538Z" stroke="#04b4e0" stroke-width="3" stroke-miterlimit="10"/>
<path transform="translate(-15, 0)" d="M3.57141 26.5385H47.8571" stroke="#04b4e0" stroke-width="3" stroke-miterlimit="10"/>
<path transform="translate(-15, 0)" d="M12.1429 23.4615V31.1539" stroke="#04b4e0" stroke-width="3" stroke-miterlimit="10" stroke-linecap="round"/>
<path transform="translate(-15, 0)" d="M37.8571 23.4615V31.1539" stroke="#04b4e0" stroke-width="3" stroke-miterlimit="10" stroke-linecap="round"/>
</svg>
