<svg width="50" height="35" viewBox="0 0 57 56" fill="none" xmlns="http://www.w3.org/2000/svg">
<path d="M28.3333 1.10886L54.3524 13.5758L28.3333 26.0427L2.31424 13.5758L28.3333 1.10886Z" stroke="#04b4e0" stroke-width="3"/>
<path d="M13.3333 18.6667V33.3333C13.3333 35.5425 15.123 37.3333 17.3321 37.3333C20.0288 37.3333 23.7644 37.3333 27.5 37.3333C31.2356 37.3333 34.9712 37.3333 37.6678 37.3333C39.877 37.3333 41.6666 35.5425 41.6666 33.3333V18.6667" stroke="#04b4e0" stroke-width="3" stroke-linecap="round" stroke-linejoin="round"/>
<line x1="49.3333" y1="15.2727" x2="49.3333" y2="35.6363" stroke="#04b4e0" stroke-width="3"/>
<path d="M54 39.0303C54 41.3067 52.1922 43.1212 50 43.1212C47.8078 43.1212 46 41.3067 46 39.0303C46 36.7539 47.8078 34.9394 50 34.9394C52.1922 34.9394 54 36.7539 54 39.0303Z" stroke="#04b4e0" stroke-width="3"/>
<line x1="49.3333" y1="42.4242" x2="49.3333" y2="50.9091" stroke="#04b4e0" stroke-width="3"/>
</svg>
